<svg xmlns="http://www.w3.org/2000/svg" width="354" height="354" viewBox="0 0 354 354" version="1.1"><path d="M 108.432 85.616 C 108.820 90.905, 109.550 96.317, 110.055 97.644 C 110.890 99.840, 110.794 99.960, 108.986 98.992 C 106.033 97.412, 106.422 99.084, 111.096 108.068 C 113.349 112.398, 116.949 117.528, 119.096 119.468 C 121.243 121.408, 123 123.219, 123 123.492 C 123 123.765, 121.313 123.754, 119.250 123.466 C 115.742 122.977, 115.625 123.041, 117.441 124.471 C 118.509 125.312, 119.945 126, 120.632 126 C 121.320 126, 122.200 126.515, 122.589 127.144 C 123.114 127.993, 119.971 128.113, 110.398 127.609 C 86.380 126.344, 80.518 125.920, 72.194 124.848 C 67.626 124.259, 63.717 123.949, 63.508 124.159 C 62.616 125.051, 71.808 137.926, 77.412 143.632 C 83.480 149.813, 83.489 149.831, 80.250 149.286 C 78.463 148.985, 77 149, 77 149.321 C 77 150.074, 89.740 158.317, 95.249 161.127 C 97.587 162.320, 99.500 163.177, 99.500 163.032 C 99.500 162.887, 101.300 163.268, 103.500 163.878 C 105.700 164.489, 108.850 165.005, 110.500 165.026 L 113.500 165.062 109.500 167.598 L 105.500 170.134 111.500 169.633 C 118.654 169.036, 132.275 164.886, 140.221 160.883 C 143.368 159.297, 146.181 158, 146.471 158 C 146.762 158, 147 161.100, 147 164.888 C 147 172.686, 150.484 186.075, 154.656 194.307 C 159.838 204.536, 169.806 218.606, 176.097 224.574 C 183.285 231.393, 188.756 234.863, 198.111 238.535 C 201.625 239.914, 205.287 241.487, 206.250 242.030 C 209.330 243.768, 208.146 241.432, 202.377 234.394 C 196.352 227.044, 192.889 220.574, 190.024 211.313 L 188.231 205.518 193.581 199.739 C 200.699 192.051, 204.687 186.116, 207.673 178.766 C 210.516 171.770, 211.629 161.407, 210.200 155.250 C 209.008 150.120, 209.689 149.937, 213 154.500 C 216.036 158.684, 216.840 158.864, 216.348 155.250 C 216.040 152.995, 216.231 153.160, 217.405 156.167 C 219.373 161.204, 221.310 174.651, 220.610 178.411 C 220.058 181.380, 220.097 181.422, 221.632 179.500 C 225.925 174.121, 228.443 166.574, 228.472 159 C 228.487 154.875, 228.161 150.290, 227.746 148.811 L 226.993 146.122 233.246 148.918 C 236.686 150.455, 242.425 152.436, 246 153.318 C 252.122 154.829, 263 156.130, 263 155.351 C 263 155.155, 261.171 153.342, 258.935 151.323 C 253.377 146.301, 251.997 143.205, 252.017 135.800 L 252.034 129.500 257.767 127.241 L 263.500 124.981 265.500 127.740 C 270.990 135.312, 277.751 139.996, 284.281 140.755 C 289.622 141.375, 290.800 139.978, 290.800 133.027 C 290.800 127.342, 290.683 127.078, 287.499 125.566 C 285.683 124.705, 283.660 124, 283.003 124 C 280.814 124, 275.920 119.833, 273.375 115.802 C 271.233 112.409, 270.487 111.912, 268.346 112.449 C 266.964 112.796, 266.042 112.725, 266.299 112.290 C 267.139 110.867, 265.101 107, 263.511 107 C 262.656 107, 260.279 108.074, 258.229 109.388 C 256.178 110.701, 253.327 112.043, 251.894 112.371 C 249.600 112.895, 249.072 112.487, 247.483 108.961 C 245.198 103.896, 238.465 97.639, 233.554 96.018 C 231.432 95.317, 227.305 94.977, 224.138 95.241 C 219.346 95.641, 218.042 95.363, 215.446 93.387 C 208.511 88.107, 198.653 86.447, 191.639 89.378 C 188.107 90.853, 182.012 96.370, 177.803 101.899 L 175.215 105.299 168.858 102.754 C 159.077 98.840, 157.952 98.880, 155.108 103.248 L 152.668 106.995 148.084 104.345 C 141.075 100.292, 130.574 92.906, 119.209 84.034 C 113.549 79.615, 108.650 76, 108.322 76 C 107.994 76, 108.044 80.327, 108.432 85.616 M 112 86.892 C 112 91.636, 114.188 100.530, 116.416 104.837 C 118.669 109.195, 118.420 110.676, 115.814 108.405 C 113.670 106.536, 113.673 106.576, 115.976 110.500 C 120.695 118.541, 127.068 123.337, 135.147 124.925 L 139.500 125.781 135.191 125.890 C 132.596 125.956, 131.128 126.398, 131.500 127 C 132.176 128.093, 147.269 128.347, 153.211 127.364 L 156.923 126.751 155.528 123.414 C 154.761 121.578, 153.824 118.009, 153.445 115.481 C 152.924 112.011, 152.113 110.494, 150.128 109.285 C 140.468 103.397, 130.400 96.587, 122.973 90.918 C 111.247 81.965, 112 82.241, 112 86.892 M 192.500 92.565 C 188.642 94.562, 182.466 100.547, 179.750 104.920 L 177.627 108.340 180.063 109.875 C 183.960 112.330, 193.339 122.194, 195.273 125.872 C 197.016 129.186, 197.142 129.236, 202.559 128.787 C 209.257 128.231, 210.439 127.285, 209.037 123.598 C 206.432 116.744, 208.542 106.177, 213.564 100.934 L 216.021 98.368 213.747 96.232 C 208.439 91.246, 198.398 89.513, 192.500 92.565 M 223.500 99.968 C 215.681 101.752, 211.512 107.353, 211.571 115.996 C 211.619 122.927, 214.479 128.649, 221.141 135.137 C 226.458 140.317, 239.886 147.485, 246.355 148.599 C 250.160 149.253, 250.195 149.231, 248.985 146.881 C 247.180 143.373, 241.830 138, 240.142 138 C 237.317 138, 230.024 132.943, 229.429 130.571 C 228.750 127.867, 231.151 122.594, 233.750 121.080 C 235.720 119.933, 234.998 119.714, 230.138 119.985 C 227.936 120.108, 227.007 119.798, 227.447 119.086 C 227.816 118.489, 230.008 118, 232.318 118 C 235.436 118, 236.841 117.484, 237.768 116 C 238.474 114.869, 240.100 114, 241.508 114 C 244.649 114, 244.656 112.429, 241.533 107.834 C 237.324 101.640, 230.061 98.472, 223.500 99.968 M 157.231 104.770 C 156.070 106.542, 155.500 109.410, 155.500 113.477 C 155.500 121.809, 159.312 129.164, 172.100 145.500 C 184.203 160.962, 190 169.613, 190 172.214 C 190 173.261, 190.450 173.840, 191 173.500 C 194.592 171.280, 189.431 151.755, 181.802 138.706 C 178.623 133.267, 178.334 132.202, 180.532 134.026 C 181.877 135.143, 181.938 134.967, 181.031 132.581 C 179.156 127.651, 174.912 123.135, 169.722 120.549 C 165.428 118.409, 165.033 118, 167.261 118 C 168.720 118, 173.871 120.088, 178.707 122.640 C 188.021 127.554, 193 129.420, 193 127.995 C 193 125.839, 190.638 121.250, 188.186 118.645 C 182.765 112.883, 170.388 105.543, 161.731 102.956 C 159.371 102.251, 158.706 102.519, 157.231 104.770 M 258.843 111.634 C 256.533 113.221, 252.663 114.535, 248.343 115.198 C 239.086 116.619, 239 116.654, 239 118.969 C 239 122.834, 249.085 121.235, 257.213 116.080 L 261.856 113.135 263.488 118.318 C 266.729 128.610, 275.907 137.533, 284.432 138.682 C 290.860 139.549, 290.173 134.785, 283.632 133.137 C 275.002 130.965, 266.129 121.329, 264.397 112.250 C 264.056 110.463, 263.490 109.027, 263.139 109.060 C 262.787 109.093, 260.854 110.251, 258.843 111.634 M 268.637 114.779 C 267.055 117.338, 274.171 127.254, 279 129.219 C 283.639 131.106, 287.992 131.822, 288.624 130.800 C 289.514 129.359, 287.155 127.560, 281.797 125.595 C 277.489 124.015, 273.148 120.147, 270.428 115.462 C 269.685 114.184, 269.134 113.974, 268.637 114.779 M 255.500 121.440 C 252.626 122.324, 251.409 123.291, 251.176 124.873 C 250.888 126.825, 251.172 126.998, 253.676 126.397 C 258.208 125.309, 262 123.067, 262 121.474 C 262 119.762, 260.973 119.757, 255.500 121.440 M 239 123.471 C 239 125.646, 245.926 138, 247.146 138 C 247.559 138, 247.572 134.434, 247.188 126.750 C 247.004 123.073, 246.922 123, 243 123 C 240.800 123, 239 123.212, 239 123.471 M 70 128.985 C 70 129.329, 72.469 132.605, 75.487 136.264 C 80.874 142.794, 88.565 149.331, 94.500 152.424 L 97.500 153.988 93.500 154.029 C 89.519 154.071, 89.512 154.078, 92 155.518 C 101.662 161.112, 115.908 162.430, 125.237 158.593 C 131.970 155.824, 131.886 156.635, 124.975 161.113 C 122.239 162.886, 120 164.426, 120 164.534 C 120 165.575, 140.228 157.207, 144.540 154.382 L 146.981 152.782 144.857 149.799 C 142.800 146.910, 139 136.278, 139 133.411 C 139 130.437, 152.470 132.833, 159.876 137.125 C 161.733 138.201, 163.464 138.870, 163.722 138.611 C 163.981 138.352, 162.843 136.178, 161.193 133.780 L 158.192 129.419 147.846 130.294 C 136.196 131.278, 83.309 130.477, 75.250 129.194 C 72.362 128.735, 70 128.640, 70 128.985 M 182.999 129.624 C 183 129.692, 184.183 131.864, 185.628 134.450 C 187.073 137.036, 188.820 141.030, 189.509 143.326 C 190.858 147.822, 191.066 147.886, 199.711 146.455 C 202.774 145.949, 202.869 145.798, 201.774 143.212 C 201.143 141.720, 198.888 138.179, 196.763 135.343 C 193.136 130.500, 192.599 130.165, 187.950 129.843 C 185.227 129.654, 182.999 129.556, 182.999 129.624 M 207.500 130 C 206.400 130.473, 203.509 130.891, 201.076 130.930 L 196.651 131 198.664 133.250 C 199.771 134.488, 201.724 137.300, 203.004 139.500 C 205.753 144.225, 213 151.656, 213 149.749 C 213 149.019, 212.100 146.658, 211 144.500 C 208.347 139.297, 208.454 139.107, 212.093 142.563 C 217.549 147.743, 221.719 157.711, 222.213 166.750 C 222.371 169.637, 222.779 172, 223.120 172 C 224.381 172, 226.425 162.326, 226.289 157 C 226.085 148.980, 223.716 143.540, 217.505 136.832 C 214.477 133.562, 212 130.462, 212 129.943 C 212 128.808, 210.221 128.831, 207.500 130 M 141.024 135.111 C 141.066 137.613, 145.528 147.454, 148.692 152.024 C 152.441 157.441, 162.430 167.403, 167.033 170.318 C 170.270 172.367, 170.356 172.372, 169.610 170.469 C 169.186 169.386, 167.353 163.357, 165.537 157.070 C 162.441 146.350, 162.012 145.512, 158.628 143.570 C 153.874 140.843, 154.058 140.096, 159.250 141.047 C 161.588 141.476, 163.680 141.648, 163.899 141.431 C 164.119 141.213, 161.367 139.663, 157.784 137.986 C 150.266 134.468, 140.986 132.876, 141.024 135.111 M 165 148.165 C 165 148.824, 165.943 152.860, 167.097 157.134 L 169.193 164.903 173.847 166.403 C 176.406 167.227, 180.260 168.213, 182.411 168.593 C 185.847 169.199, 186.242 169.074, 185.662 167.563 C 185.037 165.932, 179.442 157.360, 176.738 153.889 C 174.903 151.534, 165 146.704, 165 148.165 M 201 153.656 C 199.625 153.867, 197.150 154.254, 195.500 154.516 L 192.500 154.992 192.837 162.113 L 193.173 169.235 197.837 168.591 C 207.217 167.296, 206.497 167.892, 206.529 161.394 C 206.545 158.152, 206.384 154.938, 206.172 154.250 C 205.783 152.989, 205.532 152.961, 201 153.656 M 150.006 161.739 C 150.026 167.742, 152.166 175.564, 154.439 177.936 C 163.419 187.309, 179.246 191.366, 197.708 189.026 C 198.188 188.966, 202.961 180.275, 203.939 177.682 C 204.935 175.041, 204.863 174.909, 202.784 175.569 C 201.564 175.956, 198.805 176.273, 196.653 176.273 C 193.661 176.273, 192.626 176.716, 192.248 178.160 C 191.790 179.910, 191.665 179.924, 190.519 178.356 C 189.730 177.278, 187.134 176.413, 183.350 175.967 C 180.087 175.582, 176.385 174.940, 175.123 174.539 C 173.037 173.877, 172.930 174.001, 173.949 175.905 C 176.024 179.782, 173.717 178.396, 158.750 166.773 C 152.312 161.773, 150.002 160.443, 150.006 161.739 M 160.051 195.944 C 161.889 199.392, 163.962 202.432, 164.658 202.699 C 166.652 203.464, 187.313 200.985, 188.728 199.811 C 190.156 198.626, 190.490 196.579, 189.117 197.428 C 188.632 197.728, 184.469 197.501, 179.867 196.925 C 172.809 196.040, 167.939 194.553, 158.105 190.281 C 157.297 189.930, 158.117 192.316, 160.051 195.944 M 180.466 204.055 C 180.256 204.395, 180.924 207.445, 181.950 210.834 C 182.976 214.223, 183.495 217.194, 183.104 217.436 C 182.713 217.677, 180.899 215.158, 179.074 211.837 C 175.910 206.082, 175.609 205.828, 172.658 206.418 C 167.742 207.402, 167.389 208.511, 170.547 213.067 C 174.664 219.009, 184.114 227.249, 191.049 230.945 L 197.018 234.127 194.107 229.813 C 191.387 225.784, 185.687 214, 186.457 214 C 186.648 214, 186.179 211.923, 185.415 209.384 C 184.651 206.845, 184.255 204.397, 184.534 203.944 C 184.814 203.491, 184.099 203.192, 182.946 203.279 C 181.792 203.366, 180.676 203.715, 180.466 204.055 M 171.315 246.464 C 164.306 249.512, 162.997 259.927, 168.954 265.250 C 171.363 267.403, 173.028 268, 176.616 268 C 180.496 268, 181.722 267.478, 184.600 264.600 C 186.470 262.730, 188 260.705, 188 260.100 C 188 258.448, 181.430 258.777, 180 260.500 C 176.546 264.662, 169.537 259.507, 171.824 254.487 C 173.266 251.322, 177.480 250.219, 179.869 252.381 C 180.853 253.272, 183.096 254, 184.854 254 C 188.051 254, 188.051 254, 186.570 251.135 C 185.050 248.195, 179.641 244.969, 176.349 245.039 C 175.332 245.061, 173.067 245.702, 171.315 246.464 M 201 245.620 C 196.926 247.049, 194.703 248.674, 193.415 251.165 C 189.373 258.981, 195.044 268, 204 268 C 214.387 268, 219.625 255.761, 212.238 248.753 C 209.524 246.179, 203.887 244.608, 201 245.620 M 100 257.109 L 100 268.219 107.412 267.844 C 112.899 267.567, 115.365 266.979, 116.912 265.580 C 119.373 263.352, 119.630 259.768, 117.458 257.965 C 116.388 257.077, 116.234 256.366, 116.958 255.642 C 118.614 253.986, 118.169 249.463, 116.171 247.655 C 114.827 246.439, 112.441 246, 107.171 246 L 100 246 100 257.109 M 124 257.042 L 124 268.084 131.725 267.792 C 139.220 267.509, 139.450 267.426, 139.452 265 C 139.453 262.729, 139.021 262.472, 134.727 262.195 C 131.412 261.981, 130 261.459, 130 260.445 C 130 259.426, 131.179 259, 134 259 C 137.600 259, 138 258.750, 138 256.500 C 138 254.250, 137.600 254, 134 254 C 131.111 254, 130 253.583, 130 252.500 C 130 251.389, 131.167 251, 134.500 251 C 138.633 251, 139 250.796, 139 248.500 C 139 246.056, 138.833 246, 131.500 246 L 124 246 124 257.042 M 145 257.042 L 145 268.084 152.750 267.792 C 160.272 267.509, 160.500 267.426, 160.500 265 C 160.500 262.715, 160.113 262.493, 156 262.424 C 152.626 262.367, 151.419 261.929, 151.177 260.674 C 150.917 259.330, 151.656 259, 154.927 259 C 158.605 259, 159 258.758, 159 256.500 C 159 254.250, 158.600 254, 155 254 C 152.111 254, 151 253.583, 151 252.500 C 151 251.389, 152.167 251, 155.500 251 C 159.633 251, 160 250.796, 160 248.500 C 160 246.056, 159.833 246, 152.500 246 L 145 246 145 257.042 M 221 257.063 L 221 268.127 224.250 267.813 L 227.500 267.500 227.784 256.750 L 228.068 246 224.534 246 L 221 246 221 257.063 M 234 257.063 L 234 268.127 237.187 267.813 C 240.340 267.503, 240.373 267.444, 240.272 262.250 C 240.216 259.363, 240.303 257, 240.465 257 C 240.627 257, 242.628 259.475, 244.912 262.500 C 247.977 266.559, 249.711 268, 251.532 268 L 254 268 254 257 L 254 246 251.052 246 C 248.201 246, 248.095 246.172, 247.802 251.250 L 247.500 256.500 243.537 251.250 C 240.419 247.121, 238.978 246, 236.787 246 L 234 246 234 257.063 M 106.667 250.667 C 105.007 252.326, 106.179 254, 109 254 C 110.898 254, 112 253.488, 112 252.607 C 112 250.626, 108.119 249.214, 106.667 250.667 M 201.185 251.684 C 200.462 251.973, 199.438 253.348, 198.909 254.740 C 197.564 258.276, 200.085 262, 203.823 262 C 207.334 262, 209 260.350, 209 256.871 C 209 252.393, 205.395 250, 201.185 251.684 M 106 261 C 106 262.556, 106.667 263, 109 263 C 111.333 263, 112 262.556, 112 261 C 112 259.444, 111.333 259, 109 259 C 106.667 259, 106 259.444, 106 261" stroke="none" fill="#0b0905" fill-rule="evenodd"/><path d="M 168.263 68.007 C 159.546 70.291, 148.679 75.504, 141.970 80.621 C 135.837 85.298, 136.222 86.319, 142.492 82.005 C 148.282 78.022, 157.532 73.872, 166 71.458 C 175.030 68.885, 195.868 68.868, 205 71.427 C 214.696 74.144, 226.702 80.233, 233.817 86.042 C 237.291 88.878, 240.346 90.987, 240.606 90.727 C 241.337 89.997, 231.121 81.094, 225.127 77.238 C 217.864 72.565, 210.411 69.371, 202.482 67.532 C 193.305 65.404, 177.351 65.625, 168.263 68.007 M 171.330 74.554 C 159.777 77.088, 147.148 83.364, 139.171 90.536 C 136.477 92.958, 134.092 94.841, 133.870 94.720 C 133.648 94.599, 133.699 94.805, 133.983 95.177 C 134.268 95.549, 138.550 98.391, 143.500 101.493 C 151.525 106.521, 152.608 106.946, 153.500 105.422 C 154.050 104.481, 155.400 102.657, 156.500 101.367 L 158.500 99.022 165.500 101.588 C 169.350 102.999, 173.175 104.363, 174 104.618 C 174.941 104.909, 177.046 103.094, 179.646 99.749 C 189.564 86.992, 201.872 84.338, 213.822 92.380 C 218.251 95.361, 219.279 95.641, 224.256 95.229 C 227.306 94.976, 231.466 95.329, 233.554 96.018 C 238.471 97.641, 245.199 103.898, 247.490 108.978 C 248.488 111.190, 249.685 113, 250.152 113 C 251.779 113, 250.967 111.266, 246.081 104.309 C 229.521 80.729, 198.846 68.519, 171.330 74.554 M 112.309 88.138 C 112.358 91.425, 112.649 92.581, 113.123 91.376 C 113.555 90.274, 113.888 90.073, 113.930 90.889 C 113.968 91.654, 115.371 94.507, 117.047 97.231 C 119.477 101.180, 119.853 102.472, 118.904 103.616 C 116.744 106.219, 117.442 113.776, 120.107 116.629 C 123.551 120.316, 130.113 123.935, 135.147 124.925 L 139.500 125.781 135.191 125.890 C 132.596 125.956, 131.128 126.398, 131.500 127 C 132.176 128.093, 147.269 128.347, 153.211 127.364 L 156.923 126.751 155.528 123.414 C 154.761 121.578, 153.824 118.009, 153.445 115.481 C 152.924 112.011, 152.113 110.494, 150.128 109.285 C 140.468 103.397, 130.400 96.587, 122.973 90.918 C 118.232 87.297, 113.875 84.041, 113.292 83.680 C 112.594 83.249, 112.258 84.774, 112.309 88.138 M 108.158 89 C 108.158 90.375, 108.385 90.938, 108.662 90.250 C 108.940 89.563, 108.940 88.438, 108.662 87.750 C 108.385 87.063, 108.158 87.625, 108.158 89 M 192.500 92.565 C 188.642 94.562, 182.466 100.547, 179.750 104.920 L 177.627 108.340 180.063 109.875 C 183.960 112.330, 193.339 122.194, 195.273 125.872 C 197.016 129.186, 197.142 129.236, 202.559 128.787 C 209.257 128.231, 210.439 127.285, 209.037 123.598 C 206.432 116.744, 208.542 106.177, 213.564 100.934 L 216.021 98.368 213.747 96.232 C 208.439 91.246, 198.398 89.513, 192.500 92.565 M 106 97.833 C 106 98.292, 106.655 98.667, 107.456 98.667 C 108.257 98.667, 108.680 98.292, 108.397 97.833 C 108.114 97.375, 107.459 97, 106.941 97 C 106.423 97, 106 97.375, 106 97.833 M 223.500 99.968 C 215.681 101.752, 211.512 107.353, 211.571 115.996 C 211.619 122.927, 214.479 128.649, 221.141 135.137 C 226.458 140.317, 239.886 147.485, 246.355 148.599 C 250.160 149.253, 250.195 149.231, 248.985 146.881 C 247.180 143.373, 241.830 138, 240.142 138 C 237.317 138, 230.024 132.943, 229.429 130.571 C 228.750 127.867, 231.151 122.594, 233.750 121.080 C 235.720 119.933, 234.998 119.714, 230.138 119.985 C 227.936 120.108, 227.007 119.798, 227.447 119.086 C 227.816 118.489, 230.008 118, 232.318 118 C 235.436 118, 236.841 117.484, 237.768 116 C 238.474 114.869, 240.100 114, 241.508 114 C 244.649 114, 244.656 112.429, 241.533 107.834 C 237.324 101.640, 230.061 98.472, 223.500 99.968 M 157.231 104.770 C 156.070 106.542, 155.500 109.410, 155.500 113.477 C 155.500 121.809, 159.312 129.164, 172.100 145.500 C 184.203 160.962, 190 169.613, 190 172.214 C 190 173.261, 190.450 173.840, 191 173.500 C 194.592 171.280, 189.431 151.755, 181.802 138.706 C 178.623 133.267, 178.334 132.202, 180.532 134.026 C 181.877 135.143, 181.938 134.967, 181.031 132.581 C 179.156 127.651, 174.912 123.135, 169.722 120.549 C 165.428 118.409, 165.033 118, 167.261 118 C 168.720 118, 173.871 120.088, 178.707 122.640 C 188.021 127.554, 193 129.420, 193 127.995 C 193 125.839, 190.638 121.250, 188.186 118.645 C 182.765 112.883, 170.388 105.543, 161.731 102.956 C 159.371 102.251, 158.706 102.519, 157.231 104.770 M 258.843 111.634 C 256.533 113.221, 252.663 114.535, 248.343 115.198 C 239.045 116.626, 239 116.644, 239 119.109 C 239 121.137, 239.355 121.243, 244.382 120.724 C 249.896 120.155, 257.250 117.095, 257.104 115.431 C 257.059 114.919, 257.805 114.499, 258.761 114.499 C 259.718 114.498, 260.500 113.935, 260.500 113.249 C 260.500 112.562, 260.947 112.112, 261.493 112.250 C 262.039 112.388, 262.347 113.108, 262.176 113.850 C 261.989 114.666, 262.331 114.913, 263.040 114.475 C 263.858 113.970, 264.017 114.371, 263.565 115.796 C 261.898 121.048, 272.626 135.330, 278.500 135.677 C 284.130 136.010, 288.001 137.185, 287.343 138.362 C 286.883 139.184, 287.034 139.200, 287.886 138.417 C 289.908 136.561, 288.044 134.248, 283.632 133.137 C 275.002 130.965, 266.129 121.329, 264.397 112.250 C 264.056 110.463, 263.490 109.027, 263.139 109.060 C 262.787 109.093, 260.854 110.251, 258.843 111.634 M 268.640 114.774 C 266.883 117.616, 276.305 129.864, 279.350 128.696 C 281.496 127.873, 288.043 130.100, 287.316 131.406 C 286.981 132.008, 287.316 131.934, 288.060 131.243 C 289.885 129.549, 288.039 127.885, 281.797 125.595 C 277.489 124.015, 273.148 120.147, 270.428 115.462 C 269.689 114.190, 269.133 113.976, 268.640 114.774 M 117.356 120.631 C 117.276 121.934, 117.501 123.033, 117.856 123.074 C 118.210 123.115, 119.513 123.337, 120.750 123.568 C 123.711 124.120, 123.515 122.992, 120.195 120.381 L 117.500 118.263 117.356 120.631 M 255.793 121.292 C 253.755 121.864, 251.866 122.906, 251.597 123.607 C 251.252 124.507, 252.344 124.357, 255.304 123.096 C 257.612 122.114, 260.175 121.051, 261 120.734 C 263.625 119.726, 259.989 120.116, 255.793 121.292 M 115.745 125.131 C 116.106 126.514, 115.415 126.949, 112.349 127.266 C 110.098 127.499, 111.509 127.734, 115.750 127.832 C 119.737 127.924, 123 127.822, 123 127.605 C 123 127.387, 121.265 126.351, 119.145 125.302 C 115.581 123.538, 115.325 123.525, 115.745 125.131 M 239 123.471 C 239 125.646, 245.926 138, 247.146 138 C 247.559 138, 247.572 134.434, 247.188 126.750 C 247.004 123.073, 246.922 123, 243 123 C 240.800 123, 239 123.212, 239 123.471 M 70 128.985 C 70 129.329, 72.469 132.605, 75.487 136.264 C 80.874 142.794, 88.565 149.331, 94.500 152.424 L 97.500 153.988 93.500 154.029 C 89.519 154.071, 89.512 154.078, 92 155.518 C 101.525 161.032, 115.894 162.422, 125 158.710 C 129.057 157.057, 131.619 156.622, 134.766 157.054 C 138.167 157.520, 139.843 157.155, 143.035 155.251 L 147.039 152.863 144.886 149.840 C 142.806 146.919, 139 136.296, 139 133.411 C 139 130.437, 152.470 132.833, 159.876 137.125 C 161.733 138.201, 163.464 138.870, 163.722 138.611 C 163.981 138.352, 162.843 136.178, 161.193 133.780 L 158.192 129.419 147.846 130.294 C 136.196 131.278, 83.309 130.477, 75.250 129.194 C 72.362 128.735, 70 128.640, 70 128.985 M 253.750 128.696 C 252.309 129.067, 252 130.294, 252 135.639 C 252 142.389, 252.841 144.953, 256.299 148.750 C 259.727 152.514, 260.222 151.508, 259.457 142.327 C 258.350 129.035, 257.774 127.658, 253.750 128.696 M 182.999 129.624 C 183 129.692, 184.183 131.864, 185.628 134.450 C 187.073 137.036, 188.810 141.030, 189.488 143.326 C 190.166 145.622, 191.234 147.455, 191.860 147.400 C 192.487 147.345, 194.519 147.233, 196.375 147.150 C 199.315 147.019, 199.831 146.594, 200.380 143.849 C 200.911 141.193, 200.374 139.873, 196.955 135.442 C 193.152 130.512, 192.594 130.165, 187.950 129.843 C 185.227 129.654, 182.999 129.556, 182.999 129.624 M 207.500 130 C 206.400 130.473, 203.509 130.891, 201.076 130.930 L 196.651 131 198.664 133.250 C 199.771 134.488, 201.724 137.300, 203.004 139.500 C 205.753 144.225, 213 151.656, 213 149.749 C 213 149.019, 212.100 146.658, 211 144.500 C 208.347 139.297, 208.454 139.107, 212.093 142.563 C 217.549 147.743, 221.719 157.711, 222.213 166.750 C 222.371 169.637, 222.779 172, 223.120 172 C 224.381 172, 226.425 162.326, 226.289 157 C 226.085 148.980, 223.716 143.540, 217.505 136.832 C 214.477 133.562, 212 130.462, 212 129.943 C 212 128.808, 210.221 128.831, 207.500 130 M 141.024 135.111 C 141.066 137.613, 145.528 147.454, 148.692 152.024 C 152.441 157.441, 162.430 167.403, 167.033 170.318 C 170.270 172.367, 170.356 172.372, 169.610 170.469 C 169.186 169.386, 167.353 163.357, 165.537 157.070 C 162.441 146.350, 162.012 145.512, 158.628 143.570 C 153.874 140.843, 154.058 140.096, 159.250 141.047 C 161.588 141.476, 163.680 141.648, 163.899 141.431 C 164.119 141.213, 161.367 139.663, 157.784 137.986 C 150.266 134.468, 140.986 132.876, 141.024 135.111 M 227.744 148.803 C 228.160 150.286, 228.487 154.875, 228.472 159 C 228.443 166.574, 225.925 174.121, 221.632 179.500 C 220.097 181.422, 220.058 181.380, 220.610 178.411 C 221.310 174.651, 219.373 161.204, 217.405 156.167 C 216.231 153.160, 216.040 152.995, 216.348 155.250 C 216.840 158.864, 216.036 158.684, 213 154.500 C 209.689 149.937, 209.008 150.120, 210.200 155.250 C 211.629 161.407, 210.516 171.770, 207.673 178.766 C 204.686 186.117, 200.698 192.051, 193.576 199.745 L 188.221 205.529 190.423 212.515 C 192.928 220.457, 192.654 220.362, 204.500 217.431 C 229.749 211.184, 251.304 189.298, 257.616 163.500 C 258.558 159.650, 259.817 156.169, 260.414 155.765 C 261.011 155.361, 259.249 155.024, 256.497 155.015 C 250.729 154.998, 240.407 152.249, 232.478 148.619 L 226.988 146.105 227.744 148.803 M 263.820 149 C 263.470 150.925, 262.703 155.707, 262.116 159.628 C 259.669 175.967, 251.645 190.523, 238.049 203.287 C 228.559 212.197, 216.703 218.579, 204 221.615 C 194.801 223.814, 193.054 224.929, 200.364 223.937 C 232.555 219.569, 258.336 194.446, 263.999 161.927 C 264.620 158.362, 264.977 153.208, 264.793 150.473 C 264.472 145.709, 264.431 145.647, 263.820 149 M 165 148.165 C 165 148.824, 165.943 152.860, 167.097 157.134 L 169.193 164.903 173.847 166.403 C 176.406 167.227, 180.260 168.213, 182.411 168.593 C 185.847 169.199, 186.242 169.074, 185.662 167.563 C 185.037 165.932, 179.442 157.360, 176.738 153.889 C 174.903 151.534, 165 146.704, 165 148.165 M 194 154.639 C 192.807 154.962, 192.568 156.472, 192.832 162.023 C 193.162 168.950, 193.185 169, 196.015 169 C 199.227 169, 199.547 168.348, 200.556 159.750 L 201.230 154 198.365 154.116 C 196.789 154.180, 194.825 154.415, 194 154.639 M 140 160.964 C 136.975 162.542, 130.380 165.080, 125.345 166.604 L 116.191 169.375 118.646 174.937 C 125.231 189.854, 139.026 204.810, 152.207 211.323 C 160.832 215.584, 169.363 218.410, 168.299 216.652 C 167.916 216.018, 165.262 211.861, 162.401 207.414 C 159.541 202.967, 156.036 197.031, 154.612 194.222 C 150.481 186.068, 147 172.656, 147 164.888 C 147 161.100, 146.662 158.021, 146.250 158.047 C 145.838 158.073, 143.025 159.386, 140 160.964 M 150.006 161.739 C 150.026 167.742, 152.166 175.564, 154.439 177.936 C 161.014 184.799, 174.497 189.938, 186.042 189.983 C 190.560 190, 190.597 189.972, 193.292 184.478 C 194.781 181.441, 196 178.291, 196 177.478 C 196 175.248, 192.890 175.705, 192.284 178.023 C 191.796 179.887, 191.657 179.914, 190.519 178.356 C 189.730 177.278, 187.134 176.413, 183.350 175.967 C 180.087 175.582, 176.385 174.940, 175.123 174.539 C 173.037 173.877, 172.930 174.001, 173.949 175.905 C 176.024 179.782, 173.717 178.396, 158.750 166.773 C 152.312 161.773, 150.002 160.443, 150.006 161.739 M 160.173 196.071 L 163.723 202.500 172.611 202.168 C 178.916 201.933, 182.009 201.379, 183.250 200.263 C 184.213 199.398, 185 198.375, 185 197.990 C 185 197.604, 182.072 197.016, 178.493 196.682 C 173.019 196.170, 168.225 194.665, 158.062 190.264 C 157.223 189.901, 158.104 192.322, 160.173 196.071 M 188.100 199.295 C 186.835 201.402, 186.857 201.423, 188.579 199.774 C 189.570 198.824, 190.166 197.832, 189.903 197.569 C 189.640 197.306, 188.829 198.083, 188.100 199.295 M 168.464 208.059 C 166.940 210.525, 180.055 224.751, 188.162 229.425 C 190.770 230.928, 190.006 229.805, 184.668 224.290 C 180.911 220.408, 176.287 214.929, 174.392 212.115 C 170.925 206.967, 169.669 206.108, 168.464 208.059 M 173.500 223 C 175.648 225.200, 177.631 227, 177.906 227 C 178.181 227, 176.648 225.200, 174.500 223 C 172.352 220.800, 170.369 219, 170.094 219 C 169.819 219, 171.352 220.800, 173.500 223 M 99 256.500 L 99 269 107.411 269 C 115.576 269, 115.898 268.910, 118.411 265.923 C 121.363 262.416, 121.566 261.157, 119.614 258.487 C 118.597 257.096, 118.498 256.002, 119.241 254.370 C 122.108 248.078, 116.717 244, 105.532 244 L 99 244 99 256.500 M 122.821 252.250 C 122.723 256.788, 122.647 262.300, 122.651 264.500 L 122.660 268.500 131.830 268.788 L 141 269.075 141 265.038 C 141 262.817, 140.632 261, 140.181 261 C 139.731 261, 139.771 257.830, 140.271 253.956 C 140.771 250.082, 140.929 246.257, 140.622 245.456 C 140.193 244.339, 138.078 244, 131.531 244 L 123 244 122.821 252.250 M 143.433 245.314 C 143.156 246.037, 143.057 251.550, 143.214 257.564 L 143.500 268.500 152.750 268.788 L 162 269.075 162 265.038 C 162 262.817, 161.631 261, 161.179 261 C 160.728 261, 160.695 258.637, 161.106 255.750 C 161.518 252.863, 161.887 249.037, 161.927 247.250 L 162 244 152.969 244 C 146.430 244, 143.798 244.363, 143.433 245.314 M 170.388 244.980 C 167.556 246.124, 164.286 250.421, 163.490 254.043 C 162.106 260.348, 167.276 268.136, 173.633 269.320 C 180.323 270.566, 188.392 265.723, 189.163 260 C 189.471 257.715, 189.139 257.474, 185.305 257.195 C 182.118 256.964, 180.610 257.390, 179.032 258.968 C 176.205 261.795, 172.733 260.139, 173.190 256.183 C 173.432 254.093, 174.109 253.430, 176.256 253.183 C 178.053 252.976, 179.221 253.411, 179.613 254.433 C 180.032 255.527, 181.541 256, 184.607 256 C 188.512 256, 189 255.747, 189 253.723 C 189 246.758, 178.359 241.760, 170.388 244.980 M 196.314 245.950 C 192.249 248.429, 190.833 251.126, 190.751 256.541 C 190.633 264.351, 195.727 269.231, 204 269.231 C 214.359 269.231, 220.037 260.746, 216.076 251.183 C 213.326 244.544, 203.072 241.829, 196.314 245.950 M 220 256.500 L 220 269 224.500 269 L 229 269 229 256.500 L 229 244 224.500 244 L 220 244 220 256.500 M 233 256.500 L 233 269 237.440 269 C 241.835 269, 241.882 268.963, 242.190 265.307 L 242.500 261.613 245 265.334 C 247.269 268.712, 247.869 269.029, 251.500 268.777 L 255.500 268.500 255.500 256.500 L 255.500 244.500 250.750 244.195 L 246 243.890 246 248.095 L 246 252.300 242.994 248.150 C 240.457 244.649, 239.441 244, 236.494 244 L 233 244 233 256.500 M 171.315 246.464 C 164.306 249.512, 162.997 259.927, 168.954 265.250 C 171.363 267.403, 173.028 268, 176.616 268 C 180.496 268, 181.722 267.478, 184.600 264.600 C 186.470 262.730, 188 260.705, 188 260.100 C 188 258.448, 181.430 258.777, 180 260.500 C 176.546 264.662, 169.537 259.507, 171.824 254.487 C 173.266 251.322, 177.480 250.219, 179.869 252.381 C 180.853 253.272, 183.096 254, 184.854 254 C 188.051 254, 188.051 254, 186.570 251.135 C 185.050 248.195, 179.641 244.969, 176.349 245.039 C 175.332 245.061, 173.067 245.702, 171.315 246.464 M 201 245.620 C 196.926 247.049, 194.703 248.674, 193.415 251.165 C 189.373 258.981, 195.044 268, 204 268 C 214.387 268, 219.625 255.761, 212.238 248.753 C 209.524 246.179, 203.887 244.608, 201 245.620 M 100 257.109 L 100 268.219 107.412 267.844 C 112.899 267.567, 115.365 266.979, 116.912 265.580 C 119.373 263.352, 119.630 259.768, 117.458 257.965 C 116.388 257.077, 116.234 256.366, 116.958 255.642 C 118.614 253.986, 118.169 249.463, 116.171 247.655 C 114.827 246.439, 112.441 246, 107.171 246 L 100 246 100 257.109 M 124 257.042 L 124 268.084 131.725 267.792 C 139.220 267.509, 139.450 267.426, 139.452 265 C 139.453 262.729, 139.021 262.472, 134.727 262.195 C 131.412 261.981, 130 261.459, 130 260.445 C 130 259.426, 131.179 259, 134 259 C 137.600 259, 138 258.750, 138 256.500 C 138 254.250, 137.600 254, 134 254 C 131.111 254, 130 253.583, 130 252.500 C 130 251.389, 131.167 251, 134.500 251 C 138.633 251, 139 250.796, 139 248.500 C 139 246.056, 138.833 246, 131.500 246 L 124 246 124 257.042 M 145 257.042 L 145 268.084 152.750 267.792 C 160.272 267.509, 160.500 267.426, 160.500 265 C 160.500 262.715, 160.113 262.493, 156 262.424 C 152.626 262.367, 151.419 261.929, 151.177 260.674 C 150.917 259.330, 151.656 259, 154.927 259 C 158.605 259, 159 258.758, 159 256.500 C 159 254.250, 158.600 254, 155 254 C 152.111 254, 151 253.583, 151 252.500 C 151 251.389, 152.167 251, 155.500 251 C 159.633 251, 160 250.796, 160 248.500 C 160 246.056, 159.833 246, 152.500 246 L 145 246 145 257.042 M 221 257.063 L 221 268.127 224.250 267.813 L 227.500 267.500 227.784 256.750 L 228.068 246 224.534 246 L 221 246 221 257.063 M 234 257.063 L 234 268.127 237.187 267.813 C 240.340 267.503, 240.373 267.444, 240.272 262.250 C 240.216 259.363, 240.303 257, 240.465 257 C 240.627 257, 242.628 259.475, 244.912 262.500 C 247.977 266.559, 249.711 268, 251.532 268 L 254 268 254 257 L 254 246 251.052 246 C 248.201 246, 248.095 246.172, 247.802 251.250 L 247.500 256.500 243.537 251.250 C 240.419 247.121, 238.978 246, 236.787 246 L 234 246 234 257.063 M 106.667 250.667 C 105.007 252.326, 106.179 254, 109 254 C 110.898 254, 112 253.488, 112 252.607 C 112 250.626, 108.119 249.214, 106.667 250.667 M 201.185 251.684 C 200.462 251.973, 199.438 253.348, 198.909 254.740 C 197.564 258.276, 200.085 262, 203.823 262 C 207.334 262, 209 260.350, 209 256.871 C 209 252.393, 205.395 250, 201.185 251.684 M 201.200 254.200 C 198.013 257.387, 201.963 262.161, 206 260 C 209.406 258.177, 207.927 253, 204 253 C 203.120 253, 201.860 253.540, 201.200 254.200 M 106 261 C 106 262.556, 106.667 263, 109 263 C 111.333 263, 112 262.556, 112 261 C 112 259.444, 111.333 259, 109 259 C 106.667 259, 106 259.444, 106 261" stroke="none" fill="#eabe39" fill-rule="evenodd"/></svg>